<svg width="28" height="30" viewBox="0 0 28 30" fill="none" xmlns="http://www.w3.org/2000/svg">
<g id="icon_new-white 1" clip-path="url(#clip0_1226_7008)">
<path id="Vector" d="M24.8394 2.92645C24.1057 2.23861 21.1408 0.0517307 14.5368 0.0220202C14.5368 0.0220202 6.74896 -0.455149 2.95251 3.08311C0.839181 5.23082 0.0957514 8.37338 0.0173324 12.2695C-0.0610866 16.1656 -0.162545 23.4672 6.76446 25.447H6.77111L6.76668 28.4681C6.76668 28.4681 6.72238 29.6911 7.51498 29.9405C8.47373 30.243 9.0364 29.3135 9.95173 28.3114C10.4541 27.7613 11.148 26.9533 11.6707 26.3357C16.4082 26.7408 20.0518 25.8148 20.4656 25.678C21.4222 25.3629 26.8348 24.6584 27.7152 17.3572C28.6239 9.8319 27.2757 5.07191 24.8394 2.92645ZM25.6422 16.8175C24.8992 22.9135 20.5091 23.2966 19.6996 23.5604C19.3554 23.673 16.1552 24.4819 12.1311 24.215C12.1311 24.215 9.13254 27.8905 8.19594 28.8462C8.04974 28.9957 7.87784 29.056 7.76309 29.0263C7.60182 28.9862 7.55752 28.7922 7.55929 28.5086C7.56195 28.1034 7.58498 23.4884 7.58498 23.4884C1.72527 21.8354 2.06686 15.621 2.13332 12.3668C2.19977 9.11255 2.80143 6.4467 4.58867 4.65371C7.79986 1.69842 14.415 2.14002 14.415 2.14002C20.0013 2.16478 22.6782 3.87404 23.2989 4.44664C25.36 6.23963 26.41 10.5301 25.6422 16.8157V16.8175Z" fill="#1E1E1E"/>
<path id="Vector_2" d="M17.2555 12.0988C17.1828 10.6106 16.4388 9.82893 15.0234 9.75391" stroke="#1E1E1E" stroke-width="2" stroke-linecap="round" stroke-linejoin="round"/>
<path id="Vector_3" d="M19.1719 12.7514C19.2015 11.3649 18.7972 10.2065 17.9593 9.27619C17.1175 8.34256 15.9523 7.82847 14.457 7.71729" stroke="#1E1E1E" stroke-width="2" stroke-linecap="round" stroke-linejoin="round"/>
<path id="Vector_4" d="M21.1329 13.5314C21.1149 11.1254 20.4073 9.23056 19.0103 7.84677C17.6132 6.46298 15.8757 5.76373 13.7979 5.74902" stroke="#1E1E1E" stroke-width="2" stroke-linecap="round" stroke-linejoin="round"/>
<path id="Vector_5" d="M15.097 17.1816C15.097 17.1816 15.622 17.2266 15.9046 16.8728L16.4558 16.1683C16.7216 15.819 17.3631 15.5962 17.9914 15.9518C18.4622 16.2246 18.9192 16.5212 19.3608 16.8404C19.7777 17.1519 20.6315 17.8758 20.6341 17.8758C21.0408 18.2246 21.1348 18.7369 20.8579 19.2771C20.8579 19.2803 20.8557 19.2857 20.8557 19.2884C20.5507 19.8256 20.1635 20.31 19.7086 20.7235C19.7033 20.7262 19.7033 20.7289 19.6984 20.7316C19.3032 21.0671 18.915 21.2578 18.5337 21.3037C18.4775 21.3137 18.4205 21.3173 18.3635 21.3145C18.1954 21.3162 18.0281 21.29 17.8682 21.2371L17.8558 21.2187C17.2683 21.0503 16.2874 20.629 14.6539 19.7133C13.7086 19.1897 12.8087 18.5857 11.9637 17.9077C11.5402 17.5681 11.1362 17.2041 10.7538 16.8174L10.713 16.776L10.6723 16.7346L10.6315 16.6928C10.6178 16.6792 10.6045 16.6653 10.5907 16.6513C10.2102 16.2627 9.85194 15.8523 9.51769 15.4219C8.85055 14.5635 8.25608 13.6493 7.74064 12.689C6.83948 11.0288 6.42479 10.0331 6.2591 9.43527L6.24093 9.42267C6.18899 9.26019 6.1634 9.09021 6.16517 8.91939C6.16207 8.86156 6.16549 8.80357 6.17536 8.74653C6.22291 8.35999 6.41091 7.96535 6.73936 7.56261C6.74201 7.55766 6.74467 7.55766 6.74733 7.55225C7.15418 7.09008 7.63098 6.6968 8.15976 6.38724C8.16242 6.38724 8.16773 6.38454 8.17083 6.38454C8.70249 6.10319 9.20667 6.19862 9.54959 6.60962C9.55225 6.61232 10.2633 7.47978 10.5686 7.90338C10.8828 8.35252 11.1747 8.81737 11.4432 9.29617C11.7932 9.93405 11.5739 10.5872 11.2301 10.8564L10.5367 11.4164C10.1867 11.7036 10.2328 12.2371 10.2328 12.2371C10.2328 12.2371 11.2597 16.1863 15.097 17.1816Z" fill="#1E1E1E"/>
</g>
<defs>
<clipPath id="clip0_1226_7008">
<rect width="28" height="30" fill="white"/>
</clipPath>
</defs>
</svg>
